<svg width="32" height="32" viewBox="0 0 32 32" fill="none" xmlns="http://www.w3.org/2000/svg">
<path d="M12 17C12 15.6739 12.5268 14.4021 13.4645 13.4645C14.4021 12.5268 15.6739 12 17 12C17.2652 12 17.5196 11.8946 17.7071 11.7071C17.8946 11.5196 18 11.2652 18 11C18 10.7348 17.8946 10.4804 17.7071 10.2929C17.5196 10.1054 17.2652 10 17 10C15.6739 10 14.4021 9.47322 13.4645 8.53553C12.5268 7.59785 12 6.32608 12 5C12 4.73478 11.8946 4.48043 11.7071 4.29289C11.5196 4.10536 11.2652 4 11 4C10.7348 4 10.4804 4.10536 10.2929 4.29289C10.1054 4.48043 10 4.73478 10 5C10 6.32608 9.47322 7.59785 8.53553 8.53553C7.59785 9.47322 6.32608 10 5 10C4.73478 10 4.48043 10.1054 4.29289 10.2929C4.10536 10.4804 4 10.7348 4 11C4 11.2652 4.10536 11.5196 4.29289 11.7071C4.48043 11.8946 4.73478 12 5 12C6.32608 12 7.59785 12.5268 8.53553 13.4645C9.47322 14.4021 10 15.6739 10 17C10 17.2652 10.1054 17.5196 10.2929 17.7071C10.4804 17.8946 10.7348 18 11 18C11.2652 18 11.5196 17.8946 11.7071 17.7071C11.8946 17.5196 12 17.2652 12 17Z" fill="#5233FF"/>
<path d="M18 23C17.4696 23 16.9609 22.7893 16.5858 22.4142C16.2107 22.0391 16 21.5304 16 21C16 20.7348 15.8946 20.4804 15.7071 20.2929C15.5196 20.1054 15.2652 20 15 20C14.7348 20 14.4804 20.1054 14.2929 20.2929C14.1054 20.4804 14 20.7348 14 21C14 21.5304 13.7893 22.0391 13.4142 22.4142C13.0391 22.7893 12.5304 23 12 23C11.7348 23 11.4804 23.1054 11.2929 23.2929C11.1054 23.4804 11 23.7348 11 24C11 24.2652 11.1054 24.5196 11.2929 24.7071C11.4804 24.8946 11.7348 25 12 25C12.5304 25 13.0391 25.2107 13.4142 25.5858C13.7893 25.9609 14 26.4696 14 27C14 27.2652 14.1054 27.5196 14.2929 27.7071C14.4804 27.8946 14.7348 28 15 28C15.2652 28 15.5196 27.8946 15.7071 27.7071C15.8946 27.5196 16 27.2652 16 27C16 26.4696 16.2107 25.9609 16.5858 25.5858C16.9609 25.2107 17.4696 25 18 25C18.2652 25 18.5196 24.8946 18.7071 24.7071C18.8946 24.5196 19 24.2652 19 24C19 23.7348 18.8946 23.4804 18.7071 23.2929C18.5196 23.1054 18.2652 23 18 23Z" fill="#FF64C8"/>
<path d="M27 16C25.9391 16 24.9217 15.5786 24.1716 14.8284C23.4214 14.0783 23 13.0609 23 12C23 11.7348 22.8946 11.4804 22.7071 11.2929C22.5196 11.1054 22.2652 11 22 11C21.7348 11 21.4804 11.1054 21.2929 11.2929C21.1054 11.4804 21 11.7348 21 12C21 13.0609 20.5786 14.0783 19.8284 14.8284C19.0783 15.5786 18.0609 16 17 16C16.7348 16 16.4804 16.1054 16.2929 16.2929C16.1054 16.4804 16 16.7348 16 17C16 17.2652 16.1054 17.5196 16.2929 17.7071C16.4804 17.8946 16.7348 18 17 18C18.0609 18 19.0783 18.4214 19.8284 19.1716C20.5786 19.9217 21 20.9391 21 22C21 22.2652 21.1054 22.5196 21.2929 22.7071C21.4804 22.8946 21.7348 23 22 23C22.2652 23 22.5196 22.8946 22.7071 22.7071C22.8946 22.5196 23 22.2652 23 22C23 20.9391 23.4214 19.9217 24.1716 19.1716C24.9217 18.4214 25.9391 18 27 18C27.2652 18 27.5196 17.8946 27.7071 17.7071C27.8946 17.5196 28 17.2652 28 17C28 16.7348 27.8946 16.4804 27.7071 16.2929C27.5196 16.1054 27.2652 16 27 16Z" fill="#5233FF"/>
</svg>
